<?xml version="1.0" encoding="utf-8"?>
<!-- Generator: Adobe Illustrator 16.0.0, SVG Export Plug-In . SVG Version: 6.00 Build 0)  -->
<!DOCTYPE svg PUBLIC "-//W3C//DTD SVG 1.1//EN" "http://www.w3.org/Graphics/SVG/1.1/DTD/svg11.dtd">
<svg version="1.1" id="Layer_1" xmlns="http://www.w3.org/2000/svg" xmlns:xlink="http://www.w3.org/1999/xlink" x="0px" y="0px"
	 width="187.561px" height="148.57px" viewBox="0 0 187.561 148.57" enable-background="new 0 0 187.561 148.57"
	 xml:space="preserve">
<g>
	<g>
		<g>
			<path d="M70.049,42.786c3.537-2.249,4.332-8.205,8.535-9.906c0.242-0.098,0.728-0.321,0.914-0.25
				c0.506,0.193-0.115,2.307-0.16,2.487c-0.881,3.565-4.461,5.97-5.659,9.243c-0.087,0.231-0.613,1.39-0.365,1.6
				c0.385,0.325,2.102-0.8,2.373-0.959c3.68-2.164,6.016-6.924,9.633-8.926c0.146-0.08,1.512-0.918,1.711-0.57
				c0.098,0.166-0.148,0.478-0.182,0.662c-0.816,4.455-2.218,10.196-0.687,14.859c0.906,2.756,3.801,4.71,7.305,3.538
				c1.905-0.639,3.301-2.979,4.495-4.475c0.406-0.508,1.72-1.562,1.759-2.123c0.051-0.739-1.619-0.954-2.353-1.072
				c-1.096-0.177-2.379-0.057-3.011-0.661c-0.197-0.736,0.272-1.299,0.342-1.851c0.216-1.745-0.596-4.518,0.045-6.094
				c0.241-0.592,1.751-0.697,2.624-0.822c4.658-0.669,9.045,0.945,13.902,1.119c1.52-10.723-5.91-15.463-8.4-23.055
				c-1.154-3.521-2.434-8.181-1.598-13.102c0.057-0.342,0.153-1.938,0.436-2.236c0.287-0.311,1.836-0.113,2.465-0.113
				c0.884,0,1.912-0.125,2.418,0.158c0.105,4.43-0.393,8.318,0.207,12.486c0.127,0.894,0.681,3.871,1.232,3.972
				c1.516,0.274,2.361-2.731,3.674-2.717c0.748,0.009,1.674,0.875,2.375,1.05c2.254,0.563,4.152,1.656,6.392,2.26
				c-0.654,1.685-1.945,2.906-3.082,4.314c-1.187,1.469-3.398,2.758-4.179,4.475c-0.032,0.076-0.061,0.17-0.067,0.229
				c-0.23,1.97,0.537,3.968,0.776,6.003c0.226,1.907,0.771,4.133,1.027,6.094c0.102,0.792-0.025,0.682,0.775,0.914
				c2.534,0.731,5.95,1.201,8.674,1.711c1.832,0.344,3.637,0.216,5.25,0.822c0.965,0.361,1.67,0.215,1.346,1.461
				c-0.41,1.583-1.699,3.717-2.762,4.953c-0.613,0.713-1.367,2.723-2.236,3.059c-0.854,0.329-3.172,0.174-3.949-0.092
				c-1.985-0.677-4.713-1.695-7.233-1.301c-1.484,0.231-2.904,1.112-3.996,1.803c-3.838,2.424-6.312,7.311-11.392,8.469
				c-0.414,0.095-1.149,0.122-1.506,0c-1.041-0.358-1.312-2.18-2.442-2.283c-1.448-0.132-2.839,0.873-3.901,0.914
				c-0.998,0.037-2.578-1.383-3.355-1.872c-1.231-0.775-2.477-2.013-3.629-2.99c-0.94-0.798-1.465-1.896-2.67-1.142
				c-3.479,2.178-6.344,5.573-9.588,8.172c-0.797,0.64-2.436,2.849-3.674,2.352c-2.879-1.153-6.854-0.868-9.633-2.214
				c3.053-3.896,6.416-7.529,10.293-10.546c0.203-0.157,1.154-0.936,1.166-1.211c0.033-0.764-1.918-1.915-2.535-2.259
				c-2.199-1.228-5.1-2.06-5.979-4.542c-0.152-0.427-0.062-0.834-0.505-0.98c-0.881-0.296-2.485-0.415-3.239-0.571
				c-0.826-0.17-1.8-0.248-2.513-0.365c-2.6-0.427-4.862-0.813-7.073-1.392c-1.433-0.374-1.935-0.28-1.232-1.529
				c0.926-1.651,2.436-3.56,3.766-5.091c0.354-0.408,0.986-1.408,1.438-1.506c0.393-0.086,0.934,0.194,1.231,0.251
				c1.646,0.308,3.438,0.436,5.091,0.57c1.207,0.099,2.604,0.562,3.059-0.57c2.979-7.434,12.059-9.823,15.34-16.8
				c1.117-2.375,1.406-5.482,0.342-8.058c-0.463-1.121-0.896-2.467-1.096-3.789c-0.08-0.528-0.205-2.32,0.068-2.579
				c0.18-0.172,3.553-0.271,3.743-0.023c0.065,0.089,0.237,0.812,0.25,0.891c0.373,2.491,0.448,4.526,0.866,6.688
				c0.468,2.42,0.912,4.914,0.045,7.166C78.926,21.71,70.17,23.94,67.172,30.734c-1.022,2.32-1.43,5.538-1.188,9.312
				c0.02,0.301,0.084,2.435,0.344,2.466c0.549,0.062,1.406-1.72,1.619-2.261c0.857-2.179,0.945-5.014,1.895-7.099
				c0.281-0.614,1.462-2.631,2.238-2.397c0.246,0.074,0.109,0.509,0.158,0.822C72.939,35.955,70.32,38.752,70.049,42.786z"/>
			<path d="M117.343,23.978c1.05,3.605,0.974,9.993,0.046,13.673C116.337,34.047,116.413,27.653,117.343,23.978z"/>
			<path d="M48.387,40c0.016,0,0.028,0,0.045,0c1.334,14,1.375,31.532-0.021,45.185c-1.139-9.881-1.264-22.372-0.846-33.547
				c0.133-3.517-0.271-8.221,0.686-11.159C48.271,40.407,48.324,40,48.387,40z"/>
			<path d="M129.554,48.88c1.176,6.029,1.17,15.288,0,21.319c-1.24-5.95-1.134-15.24-0.068-21.297
				C129.487,48.885,129.562,48.833,129.554,48.88z"/>
			<path d="M118.323,51.323c1.203,5.914,1.162,15.116,0.023,21.068c-1.275-5.856-1.132-15.023-0.093-21.023
				C118.272,51.347,118.296,51.333,118.323,51.323z"/>
			<path d="M84.246,55c0.015,0,0.029,0,0.045,0c1.318,13,1.359,29.458-0.022,41.918c-1.246-10.747-1.347-24.336-0.64-36.07
				c0.097-1.583,0.172-4.104,0.547-5.311C84.189,55.505,84.213,55,84.246,55z"/>
			<path d="M66.191,63.899c0.018,0.005,0.021,0.022,0.045,0.022c1.279,10.99,1.402,25.995-0.068,36.909
				C64.818,89.819,64.777,74.874,66.191,63.899z"/>
		</g>
	</g>
	<g>
		<path d="M7.592,104.323h15.246v7.458H10.892v2.838l12.54,3.895v9.505c0,2.729-0.495,4.643-1.484,5.74
			c-0.99,1.102-2.828,1.65-5.512,1.65H0.002v-7.392h12.343v-3.696L0.002,120.56v-8.712c0-2.86,0.551-4.829,1.65-5.907
			C2.751,104.862,4.731,104.323,7.592,104.323z"/>
		<path d="M31.285,94.357h10.362v9.966h3.695v8.382h-3.695v22.704H31.285v-22.704h-3.63v-8.382h3.63V94.357z"/>
		<path d="M48.906,129.271v-24.948h11.022v22.704h5.146v-22.704h11.022v35.442c0,2.99-0.552,5.059-1.65,6.202
			c-1.101,1.146-3.146,1.718-6.138,1.718H56.826c-2.597,0-4.334-0.287-5.214-0.858c-1.232-0.792-1.848-2.465-1.848-5.016v-3.96
			h10.164v2.97h5.146v-9.174l-4.092,3.762h-5.479c-2.376,0-4.069-0.438-5.082-1.32C49.411,133.21,48.906,131.604,48.906,129.271z"/>
		<path d="M80.124,104.323H91.41v3.432l3.366-3.432h2.706c4.18,0,6.27,1.937,6.27,5.808v7.724h-8.646v-5.148H91.41v22.704H80.124
			V104.323z"/>
		<path d="M106.523,88.813h12.738v46.596h-12.738V88.813z"/>
		<path d="M123.551,88.813h29.437v9.702h-8.382v36.894h-12.672V98.516h-8.383V88.813z"/>
	</g>
	<g>
		<path d="M161.523,88.799h6.971v20.333h-5.531V93.695h-1.438L161.523,88.799L161.523,88.799z"/>
		<path d="M178.891,88.771h5.7v11.549h2.132v3.83h-2.132v4.981h-5.153v-4.981h-6.078v-4.493L178.891,88.771z M179.438,100.348
			v-3.342c0,0.115,0,0.158,0,0.131c0-0.029,0-0.102,0-0.217c0.018-0.229,0.037-0.672,0.057-1.324c0-0.212,0.023-0.522,0.072-0.937
			c0.047-0.413,0.072-0.591,0.072-0.533c-0.404,0.597-0.761,1.229-1.066,1.901l-2.016,4.319L179.438,100.348L179.438,100.348z"/>
	</g>
	<g enable-background="new    ">
		<path d="M161.525,114.238h6.97v20.333h-5.529v-15.437h-1.44V114.238z"/>
		<path d="M174.024,114.238h12.01v4.233h-6.769v2.074h2.333c1.383,0,2.381,0.173,2.995,0.519c1.151,0.652,1.728,1.997,1.728,4.031
			v4.867c0,2.478-0.94,3.946-2.822,4.407c-0.537,0.134-1.334,0.201-2.391,0.201h-2.621c-1.689,0-2.904-0.384-3.643-1.152
			c-0.739-0.768-1.109-2.006-1.109-3.715v-2.188h5.271v2.822h1.814v-5.242h-6.797V114.238z"/>
	</g>
</g>
</svg>
